<?xml version="1.0" encoding="UTF-8" standalone="no"?>
<!DOCTYPE svg PUBLIC "-//W3C//DTD SVG 1.1//EN"
 "http://www.w3.org/Graphics/SVG/1.1/DTD/svg11.dtd">
<!-- Generated by graphviz version 2.43.0 (0)
 -->
<!-- Title: %3 Pages: 1 -->
<svg width="206pt" height="767pt"
 viewBox="0.00 0.00 206.00 767.00" xmlns="http://www.w3.org/2000/svg" xmlns:xlink="http://www.w3.org/1999/xlink">
<g id="graph0" class="graph" transform="scale(1 1) rotate(0) translate(4 763)">
<title>%3</title>
<polygon fill="white" stroke="transparent" points="-4,4 -4,-763 202,-763 202,4 -4,4"/>
<g id="clust1" class="cluster">
<title>cluster_0</title>
<polygon fill="none" stroke="black" points="64,-136 64,-643 134,-643 134,-136 64,-136"/>
<text text-anchor="middle" x="77" y="-627.8" font-family="Times,serif" font-size="14.00">X</text>
</g>
<!-- 3840796f -->
<g id="node1" class="node">
<title>3840796f</title>
<ellipse fill="none" stroke="black" cx="27" cy="-669" rx="27" ry="18"/>
<text text-anchor="middle" x="27" y="-665.3" font-family="Times,serif" font-size="14.00">A</text>
</g>
<!-- 7a602f4e -->
<g id="node13" class="node">
<title>7a602f4e</title>
<ellipse fill="none" stroke="black" cx="99" cy="-741" rx="27" ry="18"/>
<text text-anchor="middle" x="99" y="-737.3" font-family="Times,serif" font-size="14.00">L</text>
</g>
<!-- 3840796f&#45;&gt;7a602f4e -->
<g id="edge12" class="edge">
<title>3840796f&#45;&gt;7a602f4e</title>
<path fill="none" stroke="black" d="M41.57,-684.17C51.75,-694.06 65.52,-707.45 77.03,-718.64"/>
<polygon fill="black" stroke="black" points="74.59,-721.15 84.2,-725.62 79.47,-716.13 74.59,-721.15"/>
</g>
<!-- 5e1ac5a6 -->
<g id="node2" class="node">
<title>5e1ac5a6</title>
<ellipse fill="none" stroke="black" cx="99" cy="-669" rx="27" ry="18"/>
<text text-anchor="middle" x="99" y="-665.3" font-family="Times,serif" font-size="14.00">B</text>
</g>
<!-- 5e1ac5a6&#45;&gt;7a602f4e -->
<g id="edge13" class="edge">
<title>5e1ac5a6&#45;&gt;7a602f4e</title>
<path fill="none" stroke="black" d="M99,-687.3C99,-695.02 99,-704.29 99,-712.89"/>
<polygon fill="black" stroke="black" points="95.5,-712.9 99,-722.9 102.5,-712.9 95.5,-712.9"/>
</g>
<!-- 99e50ca3 -->
<g id="node3" class="node">
<title>99e50ca3</title>
<ellipse fill="none" stroke="black" cx="171" cy="-669" rx="27" ry="18"/>
<text text-anchor="middle" x="171" y="-665.3" font-family="Times,serif" font-size="14.00">C</text>
</g>
<!-- 99e50ca3&#45;&gt;7a602f4e -->
<g id="edge14" class="edge">
<title>99e50ca3&#45;&gt;7a602f4e</title>
<path fill="none" stroke="black" d="M156.43,-684.17C146.25,-694.06 132.48,-707.45 120.97,-718.64"/>
<polygon fill="black" stroke="black" points="118.53,-716.13 113.8,-725.62 123.41,-721.15 118.53,-716.13"/>
</g>
<!-- 4340f897 -->
<g id="node4" class="node">
<title>4340f897</title>
<polygon fill="none" stroke="black" points="126,-36 72,-36 72,0 126,0 126,-36"/>
<text text-anchor="middle" x="99" y="-14.3" font-family="Times,serif" font-size="14.00">D</text>
</g>
<!-- ece16331 -->
<g id="node5" class="node">
<title>ece16331</title>
<ellipse fill="none" stroke="black" cx="99" cy="-90" rx="27" ry="18"/>
<text text-anchor="middle" x="99" y="-86.3" font-family="Times,serif" font-size="14.00">E</text>
</g>
<!-- 4340f897&#45;&gt;ece16331 -->
<g id="edge1" class="edge">
<title>4340f897&#45;&gt;ece16331</title>
<path fill="none" stroke="black" d="M99,-36.3C99,-44.02 99,-53.29 99,-61.89"/>
<polygon fill="black" stroke="black" points="95.5,-61.9 99,-71.9 102.5,-61.9 95.5,-61.9"/>
</g>
<!-- e1932a6a -->
<g id="node6" class="node">
<title>e1932a6a</title>
<ellipse fill="none" stroke="black" cx="99" cy="-162" rx="27" ry="18"/>
<text text-anchor="middle" x="99" y="-158.3" font-family="Times,serif" font-size="14.00">D</text>
</g>
<!-- ece16331&#45;&gt;e1932a6a -->
<g id="edge2" class="edge">
<title>ece16331&#45;&gt;e1932a6a</title>
<path fill="none" stroke="black" d="M99,-108.3C99,-116.02 99,-125.29 99,-133.89"/>
<polygon fill="black" stroke="black" points="95.5,-133.9 99,-143.9 102.5,-133.9 95.5,-133.9"/>
</g>
<!-- 7975e537 -->
<g id="node8" class="node">
<title>7975e537</title>
<ellipse fill="none" stroke="black" cx="99" cy="-234" rx="27" ry="18"/>
<text text-anchor="middle" x="99" y="-230.3" font-family="Times,serif" font-size="14.00">E</text>
</g>
<!-- e1932a6a&#45;&gt;7975e537 -->
<g id="edge6" class="edge">
<title>e1932a6a&#45;&gt;7975e537</title>
<path fill="none" stroke="black" d="M99,-180.3C99,-188.02 99,-197.29 99,-205.89"/>
<polygon fill="black" stroke="black" points="95.5,-205.9 99,-215.9 102.5,-205.9 95.5,-205.9"/>
</g>
<!-- 01947a80 -->
<g id="node7" class="node">
<title>01947a80</title>
<ellipse fill="none" stroke="black" cx="99" cy="-594" rx="27" ry="18"/>
<text text-anchor="middle" x="99" y="-590.3" font-family="Times,serif" font-size="14.00">J</text>
</g>
<!-- 01947a80&#45;&gt;3840796f -->
<g id="edge3" class="edge">
<title>01947a80&#45;&gt;3840796f</title>
<path fill="none" stroke="black" d="M84.78,-609.42C74.42,-619.92 60.22,-634.32 48.48,-646.22"/>
<polygon fill="black" stroke="black" points="45.73,-644.03 41.2,-653.61 50.71,-648.95 45.73,-644.03"/>
</g>
<!-- 01947a80&#45;&gt;5e1ac5a6 -->
<g id="edge4" class="edge">
<title>01947a80&#45;&gt;5e1ac5a6</title>
<path fill="none" stroke="black" d="M99,-612.3C99,-620.75 99,-631.13 99,-640.63"/>
<polygon fill="black" stroke="black" points="95.5,-640.82 99,-650.82 102.5,-640.82 95.5,-640.82"/>
</g>
<!-- 01947a80&#45;&gt;99e50ca3 -->
<g id="edge5" class="edge">
<title>01947a80&#45;&gt;99e50ca3</title>
<path fill="none" stroke="black" d="M113.22,-609.42C123.58,-619.92 137.78,-634.32 149.52,-646.22"/>
<polygon fill="black" stroke="black" points="147.29,-648.95 156.8,-653.61 152.27,-644.03 147.29,-648.95"/>
</g>
<!-- 13b9712c -->
<g id="node9" class="node">
<title>13b9712c</title>
<ellipse fill="none" stroke="black" cx="99" cy="-306" rx="27" ry="18"/>
<text text-anchor="middle" x="99" y="-302.3" font-family="Times,serif" font-size="14.00">F</text>
</g>
<!-- 7975e537&#45;&gt;13b9712c -->
<g id="edge7" class="edge">
<title>7975e537&#45;&gt;13b9712c</title>
<path fill="none" stroke="black" d="M99,-252.3C99,-260.02 99,-269.29 99,-277.89"/>
<polygon fill="black" stroke="black" points="95.5,-277.9 99,-287.9 102.5,-277.9 95.5,-277.9"/>
</g>
<!-- 41ce6641 -->
<g id="node10" class="node">
<title>41ce6641</title>
<ellipse fill="none" stroke="black" cx="99" cy="-378" rx="27" ry="18"/>
<text text-anchor="middle" x="99" y="-374.3" font-family="Times,serif" font-size="14.00">G</text>
</g>
<!-- 13b9712c&#45;&gt;41ce6641 -->
<g id="edge8" class="edge">
<title>13b9712c&#45;&gt;41ce6641</title>
<path fill="none" stroke="black" d="M99,-324.3C99,-332.02 99,-341.29 99,-349.89"/>
<polygon fill="black" stroke="black" points="95.5,-349.9 99,-359.9 102.5,-349.9 95.5,-349.9"/>
</g>
<!-- 11ca910a -->
<g id="node11" class="node">
<title>11ca910a</title>
<ellipse fill="none" stroke="black" cx="99" cy="-450" rx="27" ry="18"/>
<text text-anchor="middle" x="99" y="-446.3" font-family="Times,serif" font-size="14.00">H</text>
</g>
<!-- 41ce6641&#45;&gt;11ca910a -->
<g id="edge9" class="edge">
<title>41ce6641&#45;&gt;11ca910a</title>
<path fill="none" stroke="black" d="M99,-396.3C99,-404.02 99,-413.29 99,-421.89"/>
<polygon fill="black" stroke="black" points="95.5,-421.9 99,-431.9 102.5,-421.9 95.5,-421.9"/>
</g>
<!-- e057d323 -->
<g id="node12" class="node">
<title>e057d323</title>
<ellipse fill="none" stroke="black" cx="99" cy="-522" rx="27" ry="18"/>
<text text-anchor="middle" x="99" y="-518.3" font-family="Times,serif" font-size="14.00">H</text>
</g>
<!-- 11ca910a&#45;&gt;e057d323 -->
<g id="edge10" class="edge">
<title>11ca910a&#45;&gt;e057d323</title>
<path fill="none" stroke="black" d="M99,-468.3C99,-476.02 99,-485.29 99,-493.89"/>
<polygon fill="black" stroke="black" points="95.5,-493.9 99,-503.9 102.5,-493.9 95.5,-493.9"/>
</g>
<!-- e057d323&#45;&gt;01947a80 -->
<g id="edge11" class="edge">
<title>e057d323&#45;&gt;01947a80</title>
<path fill="none" stroke="black" d="M99,-540.3C99,-548.02 99,-557.29 99,-565.89"/>
<polygon fill="black" stroke="black" points="95.5,-565.9 99,-575.9 102.5,-565.9 95.5,-565.9"/>
</g>
<!-- 30d4fd99 -->
<g id="node14" class="node">
<title>30d4fd99</title>
<ellipse fill="none" stroke="black" cx="27" cy="-741" rx="27" ry="18"/>
<text text-anchor="middle" x="27" y="-737.3" font-family="Times,serif" font-size="14.00">K</text>
</g>
<!-- 30d4fd99&#45;&gt;7a602f4e -->
<g id="edge15" class="edge">
<title>30d4fd99&#45;&gt;7a602f4e</title>
<path fill="none" stroke="black" d="M54,-741C56.61,-741 59.23,-741 61.84,-741"/>
<polygon fill="black" stroke="black" points="61.93,-744.5 71.93,-741 61.93,-737.5 61.93,-744.5"/>
</g>
</g>
</svg>
